<?xml version="1.0" encoding="utf-8"?>
<svg width="18" height="24" viewBox="0 0 1570 2068" xmlns="http://www.w3.org/2000/svg">
  <g transform="translate(0,2068) scale(0.1,-0.1)">
    <path fill="#004590" d="M10510 13039 c-864 -87 -1631 -443 -2246 -1041 -499 -487 -849 -1093
-1019 -1767 -77 -305 -106 -538 -110 -876 -4 -284 7 -436 50 -691 187 -1116
879 -2094 1873 -2648 826 -461 1830 -583 2758 -336 607 162 1205 511 1643 959
119 122 183 278 182 446 -1 296 -227 557 -522 604 -99 16 -209 -6 -329 -65
-83 -41 -107 -60 -190 -145 -351 -361 -768 -580 -1275 -670 -153 -27 -563 -35
-750 -14 -948 106 -1745 743 -2060 1647 -39 109 -95 327 -95 365 l0 23 2825 0
2824 0 78 41 c154 82 268 198 338 344 56 116 70 182 67 330 -12 770 -302 1527
-827 2160 -89 108 -307 328 -424 429 -565 487 -1238 787 -1996 892 -143 19
-648 28 -795 13z m658 -1234 c732 -95 1388 -517 1777 -1145 78 -126 185 -351
229 -477 l35 -103 -2374 0 -2374 0 29 84 c183 519 519 949 983 1259 341 227
805 379 1222 400 114 5 367 -4 473 -18z"/>
    <path fill="#72217B" d="M1275 15944 c-194 -31 -442 -135 -590 -246 -328 -247 -529 -600 -574
-1003 -14 -121 -14 -2745 0 -2880 62 -618 492 -1101 1099 -1237 l105 -23 1460
0 c1361 0 1466 1 1545 18 128 27 233 63 355 122 386 187 654 531 762 978 16
67 17 182 21 1547 3 1653 7 1566 -69 1795 -68 205 -173 378 -324 531 -193 196
-417 322 -689 386 -91 22 -91 22 -1556 23 -1146 1 -1482 -1 -1545 -11z"/>
    <path fill="#0D6EB7" d="M7592 20569 c-488 -57 -899 -397 -1046 -867 -57 -183 -56 -143 -56
-1542 0 -1412 -2 -1367 60 -1552 128 -381 423 -673 802 -793 175 -55 162 -55
1465 -55 740 0 1204 -4 1208 -9 6 -11 102 -6 210 11 540 82 965 537 1024 1098
6 47 9 645 7 1350 l-2 1265 -22 97 c-126 552 -535 929 -1082 997 -94 12 -2468
12 -2568 0z"/>
    <path fill="#D82B80" d="M13560 17489 c-254 -23 -488 -203 -581 -448 -47 -124 -49 -171 -49
-901 1 -569 4 -698 16 -765 53 -276 254 -486 530 -556 79 -19 105 -20 835 -17
698 3 758 5 809 22 264 87 442 295 479 560 17 121 14 1430 -3 1527 -26 146
-92 272 -198 377 -97 98 -221 167 -350 193 -57 12 -1366 19 -1488 8z M6045
4013 c-132 -19 -334 -100 -440 -177 -187 -135 -330 -346 -398 -584 -22 -77
-22 -83 -25 -1142 -2 -761 0 -1088 8 -1145 32 -220 134 -421 294 -580 145
-143 293 -223 516 -277 44 -10 268 -13 1125 -13 999 0 1076 1 1155 18 423 92
738 440 788 874 4 39 8 539 7 1110 -2 915 -4 1046 -18 1109 -90 396 -355 676
-745 787 -77 22 -79 22 -1157 23 -594 1 -1093 -1 -1110 -3z"/>
    <path fill="#B12384" d="M2150 8411 c0 -5 -9 -7 -20 -4 -11 3 -28 2 -37 -2 -10 -5 -22 -7 -26
-6 -16 3 -87 -22 -87 -31 0 -5 -5 -6 -10 -3 -6 4 -40 -7 -77 -24 -188 -89
-354 -268 -427 -462 -58 -154 -57 -142 -53 -1139 3 -847 4 -919 21 -975 63
-211 188 -385 357 -497 66 -44 149 -81 244 -111 69 -21 80 -22 964 -25 788 -2
904 -1 980 13 273 51 493 223 610 477 80 172 75 103 79 1131 1 536 -1 917 -6
917 -5 0 -7 11 -5 24 10 50 -67 273 -89 260 -7 -4 -8 -2 -4 4 8 14 -20 72 -35
72 -6 0 -8 4 -5 9 3 5 -6 21 -19 35 -14 15 -25 30 -25 34 0 9 -112 122 -121
122 -4 0 -20 12 -37 28 -26 24 -133 83 -187 103 -94 35 -120 42 -160 43 -25 0
-45 4 -45 9 0 4 -400 7 -890 7 -525 0 -890 -4 -890 -9z"/>
  </g>
</svg>
